<svg width="32" height="32" viewBox="0 0 32 32" fill="none" xmlns="http://www.w3.org/2000/svg">
<g clip-path="url(#clip0_9_2)">
<path opacity="0.994" fill-rule="evenodd" clip-rule="evenodd" d="M14.9062 -0.03125C15.2604 -0.03125 15.6146 -0.03125 15.9688 -0.03125C16.6683 0.251516 17.1891 0.730681 17.5312 1.40625C17.6525 1.6867 17.7358 1.97837 17.7812 2.28125C17.5012 1.44299 16.9179 1.05757 16.0312 1.125C15.2894 1.45079 14.8935 2.02371 14.8437 2.84375C14.8577 3.71773 15.2536 4.33231 16.0312 4.6875C16.6075 4.79403 17.0762 4.61695 17.4375 4.15625C17.5545 3.96272 17.6691 3.77522 17.7812 3.59375C17.5724 4.69056 16.9474 5.43014 15.9062 5.8125C14.6343 5.93814 13.7489 5.40689 13.25 4.21875C12.9689 3.32618 12.9585 2.43035 13.2187 1.53125C13.5614 0.771881 14.1239 0.25105 14.9062 -0.03125Z" fill="#87CD65"/>
<path fill-rule="evenodd" clip-rule="evenodd" d="M17.7812 2.28127C17.86 2.71606 17.86 3.15356 17.7812 3.59377C17.6691 3.77525 17.5545 3.96275 17.4375 4.15627C17.0762 4.61697 16.6075 4.79405 16.0312 4.68752C15.2536 4.33234 14.8577 3.71775 14.8438 2.84377C14.8935 2.02373 15.2894 1.45081 16.0312 1.12502C16.9179 1.05759 17.5012 1.44301 17.7812 2.28127Z" fill="#B3D567"/>
<path opacity="0.995" fill-rule="evenodd" clip-rule="evenodd" d="M17.5313 1.40625C19.0617 1.52839 20.52 1.90339 21.9063 2.53125C20.0535 3.82994 19.0327 5.61119 18.8438 7.875C18.7742 9.21956 19.3575 10.1362 20.5938 10.625C21.7778 10.9023 22.9653 11.1731 24.1563 11.4375C24.9766 11.7579 25.6537 12.2683 26.1875 12.9688C26.7083 13.7396 27.2292 14.5104 27.75 15.2812C28.6991 16.3445 29.8762 16.7195 31.2813 16.4062C31.2229 22.2228 28.7646 26.6915 23.9063 29.8125C21.8664 31.0029 19.6789 31.7216 17.3438 31.9688C17.2813 31.9688 17.2188 31.9688 17.1563 31.9688C17.1033 30.7363 16.6554 29.6737 15.8125 28.7812C14.3407 27.4203 13.1741 25.8369 12.3125 24.0312C11.7004 22.6552 11.4712 21.2177 11.625 19.7188C11.8067 18.6473 12.2546 17.7098 12.9688 16.9062C13.9433 16.1092 14.8911 15.2759 15.8125 14.4062C17.4167 12.4057 17.5 10.3432 16.0625 8.21875C14.8239 6.76169 13.251 6.16796 11.3438 6.4375C9.65325 6.75181 8.15325 7.44975 6.84375 8.53125C4.93707 10.0723 3.82249 12.0723 3.5 14.5312C3.45145 15.3664 3.47228 16.1997 3.5625 17.0312C4.32875 20.9008 5.235 24.7341 6.28125 28.5312C3.01281 25.829 1.14823 22.3498 0.687503 18.0938C0.4286 15.1281 0.959853 12.3156 2.28125 9.65625C2.28728 10.1376 2.47478 10.5438 2.84375 10.875C3.60448 11.1975 4.02115 10.9475 4.09375 10.125C3.954 9.22269 3.454 8.89975 2.59375 9.15625C2.9402 8.49787 3.33603 7.87287 3.78125 7.28125C3.83734 7.81175 4.06651 8.25969 4.46875 8.625C5.25017 9.04519 5.80226 8.84725 6.125 8.03125C6.24934 7.36256 6.05142 6.81044 5.53125 6.375C5.29804 6.24379 5.04804 6.17087 4.78125 6.15625C5.13765 5.73729 5.53348 5.36229 5.96875 5.03125C5.98618 6.02703 6.47575 6.63119 7.4375 6.84375C8.02081 6.78125 8.39581 6.46875 8.5625 5.90625C8.71925 4.9916 8.41713 4.28327 7.65625 3.78125C8.1335 3.45897 8.6335 3.16731 9.15625 2.90625C8.97007 3.70143 9.1055 4.43059 9.5625 5.09375C10.3494 5.79126 11.0994 5.74959 11.8125 4.96875C12.3521 3.83193 12.1543 2.85276 11.2188 2.03125C11.8817 1.84468 12.5484 1.67801 13.2188 1.53125C12.9585 2.43035 12.9689 3.32618 13.25 4.21875C13.7489 5.40689 14.6343 5.93814 15.9063 5.8125C16.9474 5.43014 17.5724 4.69056 17.7813 3.59375C17.86 3.15354 17.86 2.71604 17.7813 2.28125C17.7358 1.97837 17.6525 1.6867 17.5313 1.40625Z" fill="#2A428C"/>
<path opacity="0.996" fill-rule="evenodd" clip-rule="evenodd" d="M11.2187 2.03127C12.1542 2.85277 12.3521 3.83194 11.8125 4.96877C11.0994 5.74961 10.3494 5.79127 9.5625 5.09377C9.1055 4.43061 8.97006 3.70145 9.15625 2.90627C9.56969 1.98102 10.2572 1.68936 11.2187 2.03127Z" fill="#87CD65"/>
<path fill-rule="evenodd" clip-rule="evenodd" d="M21.9063 2.53125C25.6182 4.10771 28.3161 6.73269 30 10.4062C30.8424 12.3175 31.2695 14.3175 31.2813 16.4062C29.8762 16.7195 28.6991 16.3445 27.75 15.2812C27.2292 14.5104 26.7083 13.7396 26.1875 12.9688C25.6537 12.2683 24.9766 11.7579 24.1563 11.4375C22.9653 11.1731 21.7778 10.9023 20.5938 10.625C19.3575 10.1362 18.7742 9.21956 18.8438 7.875C19.0327 5.61119 20.0535 3.82994 21.9063 2.53125Z" fill="#3B579F"/>
<path opacity="0.995" fill-rule="evenodd" clip-rule="evenodd" d="M7.65625 3.78126C8.41712 4.28328 8.71925 4.99161 8.5625 5.90626C8.39581 6.46876 8.02081 6.78126 7.4375 6.84376C6.47575 6.6312 5.98618 6.02704 5.96875 5.03126C6.04231 3.96267 6.60481 3.54601 7.65625 3.78126Z" fill="#87CC65"/>
<path opacity="0.995" fill-rule="evenodd" clip-rule="evenodd" d="M4.78125 6.15625C5.04804 6.17087 5.29804 6.24379 5.53125 6.375C6.05142 6.81044 6.24934 7.36256 6.125 8.03125C5.80226 8.84725 5.25017 9.04519 4.46875 8.625C4.06651 8.25969 3.83734 7.81175 3.78125 7.28125C3.83308 6.6465 4.16641 6.2715 4.78125 6.15625Z" fill="#6EAD46"/>
<path fill-rule="evenodd" clip-rule="evenodd" d="M12.9687 16.9063C11.2493 16.9961 9.70762 16.5274 8.34375 15.5C7.34218 14.5399 6.76925 13.3628 6.625 11.9688C6.53268 10.8098 6.60562 9.66401 6.84375 8.53126C8.15325 7.44976 9.65325 6.75182 11.3437 6.43751C13.251 6.16797 14.8239 6.7617 16.0625 8.21876C17.5 10.3432 17.4167 12.4057 15.8125 14.4063C14.8911 15.2759 13.9432 16.1092 12.9687 16.9063Z" fill="#87CD65"/>
<path opacity="0.999" fill-rule="evenodd" clip-rule="evenodd" d="M6.84375 8.53125C6.60562 9.664 6.53268 10.8098 6.625 11.9688C6.76925 13.3628 7.34219 14.5399 8.34375 15.5C9.70762 16.5274 11.2493 16.9961 12.9687 16.9062C12.2546 17.7098 11.8067 18.6473 11.625 19.7188C11.4712 21.2177 11.7004 22.6552 12.3125 24.0312C13.1741 25.8369 14.3407 27.4203 15.8125 28.7812C16.6554 29.6737 17.1033 30.7363 17.1562 31.9688C16.3021 31.9688 15.4479 31.9688 14.5937 31.9688C11.4667 31.6631 8.69587 30.5172 6.28125 28.5312C5.23499 24.7341 4.32874 20.9008 3.5625 17.0312C3.47228 16.1997 3.45145 15.3664 3.5 14.5312C3.82248 12.0723 4.93707 10.0723 6.84375 8.53125Z" fill="#6EAE46"/>
<path opacity="0.999" fill-rule="evenodd" clip-rule="evenodd" d="M2.28125 9.65627C2.33616 9.4562 2.44033 9.28952 2.59375 9.15627C3.45399 8.89977 3.95399 9.2227 4.09375 10.125C4.02115 10.9475 3.60448 11.1975 2.84375 10.875C2.47478 10.5438 2.28728 10.1376 2.28125 9.65627Z" fill="#6EAD47"/>
<path fill-rule="evenodd" clip-rule="evenodd" d="M25.0312 26.2813C22.8671 26.079 22.0129 24.9123 22.4687 22.7813C22.9947 22.6693 23.4427 22.4193 23.8125 22.0313C23.7857 22.1717 23.7545 22.3175 23.7187 22.4688C23.728 22.6644 23.8114 22.8207 23.9687 22.9375C24.152 22.957 24.3186 22.9674 24.4687 22.9688C24.238 23.2516 24.0192 23.5433 23.8125 23.8438C23.7274 24.1422 23.8212 24.3609 24.0937 24.5C24.5521 24.5417 25.0104 24.5417 25.4687 24.5C25.7007 24.343 25.7736 24.1242 25.6875 23.8438C25.5655 23.6942 25.4092 23.6004 25.2187 23.5625C25.5927 23.1505 25.7073 22.6817 25.5625 22.1563C25.1214 21.5307 24.6006 21.4473 24 21.9063C24.0457 21.7313 24.1291 21.5647 24.25 21.4063C24.3683 21.1246 24.4412 20.833 24.4687 20.5313C24.4484 18.8468 23.5942 17.951 21.9062 17.8438C21.769 17.8441 21.644 17.8649 21.5312 17.9063C20.9417 18.0237 20.4626 18.3153 20.0937 18.7813C20.0749 18.5625 19.9707 18.3854 19.7812 18.25C19.479 18.0777 19.1665 17.9423 18.8437 17.8438C18.0595 17.1602 17.747 16.2643 17.9062 15.1563C19.6307 13.411 21.5891 13.109 23.7812 14.25C24.682 14.8595 25.3591 15.6615 25.8125 16.6563C26.2769 17.1647 26.8498 17.4876 27.5312 17.625C29.2036 18.522 29.8598 19.9073 29.5 21.7813C29.2704 22.5729 28.8225 23.2083 28.1562 23.6875C27.5419 24.0033 26.9169 24.295 26.2812 24.5625C26.1042 24.7396 25.9271 24.9167 25.75 25.0938C25.5402 25.5144 25.3006 25.9102 25.0312 26.2813Z" fill="#E8EEFE"/>
<path fill-rule="evenodd" clip-rule="evenodd" d="M17.9062 15.1562C17.747 16.2643 18.0595 17.1601 18.8437 17.8438C17.9992 17.7362 17.2909 17.9862 16.7187 18.5938C15.9552 19.3303 15.7574 20.2053 16.125 21.2188C16.8333 22.6566 17.9479 23.1045 19.4687 22.5625C19.7472 22.4193 19.9764 22.2214 20.1562 21.9688C20.7809 22.6453 21.5517 22.9161 22.4687 22.7812C22.0129 24.9123 22.8671 26.0789 25.0312 26.2812C24.0667 27.5029 22.7959 28.107 21.2187 28.0938C19.2323 27.9094 17.8261 26.9094 17 25.0938C16.8229 24.9167 16.6458 24.7396 16.4687 24.5625C15.9032 24.3251 15.3407 24.0751 14.7812 23.8125C13.4257 22.8514 12.9153 21.5494 13.25 19.9062C13.5009 19.0931 13.9696 18.4369 14.6562 17.9375C15.2713 17.6215 15.8963 17.3299 16.5312 17.0625C16.9544 16.6644 17.2774 16.1957 17.5 15.6562C17.6269 15.4778 17.7623 15.3111 17.9062 15.1562Z" fill="#D2DBFA"/>
<path fill-rule="evenodd" clip-rule="evenodd" d="M21.5312 17.9062C21.644 17.8649 21.769 17.8441 21.9062 17.8438C23.5942 17.951 24.4484 18.8468 24.4688 20.5312C24.1317 20.8819 23.8192 20.8611 23.5312 20.4688C23.4918 19.3461 22.9084 18.8044 21.7812 18.8438C21.6706 18.6912 21.5872 18.5246 21.5312 18.3438C21.5348 18.1806 21.5972 18.0451 21.7188 17.9375C21.6595 17.9073 21.597 17.8969 21.5312 17.9062Z" fill="#B4D669"/>
<path fill-rule="evenodd" clip-rule="evenodd" d="M18.8437 17.8437C19.1665 17.9423 19.479 18.0777 19.7812 18.25C19.9707 18.3854 20.0749 18.5625 20.0937 18.7812C20.0305 18.867 19.968 18.9503 19.9062 19.0312C19.7933 19.1009 19.6683 19.1425 19.5312 19.1562C19.3187 19.0814 19.1104 18.9877 18.9062 18.875C18.5937 18.8333 18.2812 18.8333 17.9687 18.875C17.7172 18.9796 17.4881 19.115 17.2812 19.2812C16.8424 19.259 16.6549 19.0299 16.7187 18.5937C17.2909 17.9862 17.9992 17.7362 18.8437 17.8437Z" fill="#B4D66A"/>
<path fill-rule="evenodd" clip-rule="evenodd" d="M21.5312 17.9063C21.597 17.8969 21.6595 17.9073 21.7188 17.9375C21.5972 18.0451 21.5348 18.1806 21.5312 18.3438C21.5872 18.5246 21.6706 18.6912 21.7812 18.8438C20.7761 19.1026 20.3699 19.7485 20.5625 20.7813C21.0734 21.8404 21.8547 22.1009 22.9062 21.5625C23.2525 21.2763 23.4608 20.9117 23.5312 20.4688C23.8192 20.8611 24.1317 20.8819 24.4688 20.5313C24.4412 20.8329 24.3683 21.1246 24.25 21.4063C24.1291 21.5646 24.0457 21.7313 24 21.9063C24.6006 21.4473 25.1214 21.5306 25.5625 22.1563C25.7073 22.6817 25.5927 23.1504 25.2188 23.5625C25.4093 23.6004 25.5655 23.6941 25.6875 23.8438C25.7736 24.1242 25.7007 24.3429 25.4688 24.5C25.0104 24.5417 24.5521 24.5417 24.0938 24.5C23.8212 24.3609 23.7274 24.1421 23.8125 23.8438C24.0193 23.5433 24.238 23.2516 24.4688 22.9688C24.3186 22.9674 24.152 22.9569 23.9688 22.9375C23.8114 22.8206 23.728 22.6644 23.7188 22.4688C23.7545 22.3174 23.7857 22.1716 23.8125 22.0313C23.4427 22.4193 22.9948 22.6693 22.4688 22.7813C21.5518 22.9161 20.7809 22.6453 20.1562 21.9688C19.9764 22.2214 19.7472 22.4193 19.4688 22.5625C17.9479 23.1045 16.8333 22.6566 16.125 21.2188C15.7574 20.2053 15.9552 19.3303 16.7187 18.5938C16.6549 19.0299 16.8424 19.259 17.2812 19.2813C16.7173 20.1089 16.8007 20.8693 17.5312 21.5625C17.9604 21.8471 18.4188 21.9096 18.9062 21.75C19.1701 21.5584 19.441 21.3813 19.7188 21.2188C19.4318 20.4582 19.4943 19.729 19.9062 19.0313C19.968 18.9503 20.0305 18.867 20.0938 18.7813C20.4626 18.3153 20.9417 18.0236 21.5312 17.9063Z" fill="#89CE67"/>
<path fill-rule="evenodd" clip-rule="evenodd" d="M19.9063 19.0313C19.4943 19.729 19.4318 20.4582 19.7188 21.2188C19.441 21.3813 19.1701 21.5584 18.9063 21.75C18.4188 21.9096 17.9604 21.8471 17.5313 21.5625C16.8007 20.8693 16.7173 20.1089 17.2813 19.2813C17.4881 19.1151 17.7173 18.9796 17.9688 18.875C18.2813 18.8333 18.5938 18.8333 18.9063 18.875C19.1104 18.9877 19.3188 19.0815 19.5313 19.1563C19.6683 19.1426 19.7933 19.101 19.9063 19.0313Z" fill="#D2DBF9"/>
<path fill-rule="evenodd" clip-rule="evenodd" d="M21.7813 18.8437C22.9084 18.8044 23.4918 19.346 23.5313 20.4687C23.4608 20.9117 23.2525 21.2762 22.9063 21.5625C21.8547 22.1009 21.0734 21.8404 20.5625 20.7812C20.3699 19.7485 20.7761 19.1026 21.7813 18.8437Z" fill="#E8EEFD"/>
</g>
<defs>
<clipPath id="clip0_9_2">
<rect width="32" height="32" fill="white"/>
</clipPath>
</defs>
</svg>
