<svg width="158" height="164" viewBox="0 0 158 164" fill="none" xmlns="http://www.w3.org/2000/svg">
<g clip-path="url(#clip0_18_2)" filter="url(#filter0_d_18_2)">
<path opacity="0.994" fill-rule="evenodd" clip-rule="evenodd" d="M73.668 -0.152344C75.3946 -0.152344 77.121 -0.152344 78.8477 -0.152344C82.2577 1.22614 84.797 3.56207 86.4649 6.85547C87.056 8.22266 87.4621 9.64455 87.6836 11.1211C86.3186 7.03456 83.475 5.15565 79.1524 5.48438C75.5357 7.07259 73.6058 9.86557 73.3633 13.8633C73.4312 18.1239 75.3611 21.12 79.1524 22.8516C81.9616 23.3709 84.2467 22.5076 86.0078 20.2617C86.5782 19.3183 87.1367 18.4042 87.6836 17.5195C86.6653 22.8665 83.6185 26.472 78.543 28.3359C72.3423 28.9484 68.0258 26.3586 65.5938 20.5664C64.2233 16.2151 64.1727 11.848 65.4414 7.46484C67.112 3.76292 69.8542 1.22387 73.668 -0.152344Z" fill="#87CD65"/>
<path fill-rule="evenodd" clip-rule="evenodd" d="M87.6836 11.1211C88.0675 13.2407 88.0675 15.3735 87.6836 17.5196C87.1367 18.4043 86.5782 19.3183 86.0078 20.2617C84.2467 22.5077 81.9616 23.3709 79.1523 22.8516C75.3611 21.1201 73.4312 18.124 73.3633 13.8633C73.6058 9.8656 75.5357 7.07262 79.1523 5.4844C83.4749 5.15568 86.3186 7.03459 87.6836 11.1211Z" fill="#B3D567"/>
<path opacity="0.995" fill-rule="evenodd" clip-rule="evenodd" d="M86.4648 6.85547C93.9257 7.45089 101.035 9.27901 107.793 12.3398C98.7608 18.671 93.7843 27.3546 92.8633 38.3906C92.5241 44.9454 95.3678 49.4142 101.395 51.7969C107.167 53.1488 112.956 54.469 118.762 55.7578C122.761 57.3196 126.062 59.808 128.664 63.2227C131.203 66.9804 133.742 70.7384 136.281 74.4961C140.908 79.6794 146.646 81.5076 153.496 79.9805C153.211 108.336 141.227 130.121 117.543 145.336C107.599 151.139 96.9348 154.643 85.5508 155.848C85.2461 155.848 84.9414 155.848 84.6367 155.848C84.3786 149.839 82.1949 144.66 78.0859 140.309C70.9108 133.674 65.2235 125.955 61.0234 117.152C58.0393 110.444 56.922 103.437 57.6719 96.1289C58.5576 90.9056 60.741 86.3353 64.2226 82.418C68.9733 78.5323 73.5942 74.4699 78.0859 70.2305C85.9063 60.4777 86.3125 50.423 79.3047 40.0664C73.2667 32.9632 65.5986 30.0688 56.3008 31.3828C48.0596 32.9151 40.7471 36.3175 34.3633 41.5898C25.0682 49.1025 19.6346 58.8525 18.0625 70.8398C17.8258 74.9111 17.9274 78.9735 18.3672 83.0273C22.1026 101.891 26.5206 120.579 31.6211 139.09C15.6874 125.916 6.59758 108.955 4.35155 88.207C3.0894 73.7493 5.67926 60.0384 12.1211 47.0742C12.1505 49.4206 13.0645 51.4011 14.8633 53.0156C18.5718 54.5878 20.6031 53.3691 20.957 49.3594C20.2757 44.9606 17.8382 43.3863 13.6445 44.6367C15.3335 41.4271 17.2631 38.3803 19.4336 35.4961C19.707 38.0823 20.8242 40.266 22.7851 42.0469C26.5946 44.0953 29.286 43.1303 30.8594 39.1523C31.4655 35.8925 30.5007 33.2009 27.9648 31.0781C26.8279 30.4385 25.6092 30.083 24.3086 30.0117C26.046 27.9693 27.9757 26.1412 30.0976 24.5273C30.1826 29.3818 32.5693 32.327 37.2578 33.3633C40.1014 33.0586 41.9296 31.5352 42.7422 28.793C43.5063 24.334 42.0335 20.8809 38.3242 18.4336C40.6508 16.8625 43.0883 15.4406 45.6367 14.168C44.729 18.0445 45.3893 21.5991 47.6172 24.832C51.4532 28.2324 55.1094 28.0293 58.5859 24.2227C61.2166 18.6806 60.252 13.9072 55.6914 9.90234C58.9232 8.99279 62.1733 8.18031 65.4414 7.46484C64.1727 11.848 64.2233 16.2151 65.5937 20.5664C68.0258 26.3586 72.3423 28.9484 78.543 28.3359C83.6184 26.472 86.6653 22.8665 87.6836 17.5195C88.0675 15.3735 88.0675 13.2407 87.6836 11.1211C87.4621 9.64455 87.0559 8.22266 86.4648 6.85547Z" fill="#2A428C"/>
<path opacity="0.996" fill-rule="evenodd" clip-rule="evenodd" d="M55.6914 9.90235C60.252 13.9072 61.2166 18.6806 58.5859 24.2227C55.1094 28.0293 51.4532 28.2324 47.6172 24.832C45.3893 21.5991 44.729 18.0445 45.6367 14.168C47.6522 9.65741 51.0038 8.23553 55.6914 9.90235Z" fill="#87CD65"/>
<path fill-rule="evenodd" clip-rule="evenodd" d="M107.793 12.3398C125.889 20.0251 139.041 32.8219 147.25 50.7305C151.357 60.0478 153.439 69.7978 153.496 79.9805C146.646 81.5076 140.908 79.6794 136.281 74.4961C133.742 70.7384 131.203 66.9804 128.664 63.2227C126.062 59.808 122.761 57.3196 118.762 55.7578C112.956 54.469 107.167 53.1488 101.395 51.7969C95.3678 49.4142 92.5242 44.9454 92.8633 38.3906C93.7844 27.3546 98.7608 18.671 107.793 12.3398Z" fill="#3B579F"/>
<path opacity="0.995" fill-rule="evenodd" clip-rule="evenodd" d="M38.3242 18.4336C42.0335 20.8809 43.5063 24.334 42.7422 28.7929C41.9296 31.5351 40.1015 33.0586 37.2578 33.3633C32.5693 32.327 30.1826 29.3818 30.0977 24.5273C30.4562 19.3179 33.1985 17.2867 38.3242 18.4336Z" fill="#87CC65"/>
<path opacity="0.995" fill-rule="evenodd" clip-rule="evenodd" d="M24.3086 30.0117C25.6092 30.083 26.8279 30.4385 27.9648 31.0781C30.5007 33.2009 31.4655 35.8925 30.8594 39.1523C29.286 43.1303 26.5946 44.0953 22.7852 42.0469C20.8242 40.266 19.707 38.0823 19.4336 35.4961C19.6863 32.4017 21.3113 30.5736 24.3086 30.0117Z" fill="#6EAD46"/>
<path fill-rule="evenodd" clip-rule="evenodd" d="M64.2227 82.4179C55.8404 82.8561 48.3247 80.5709 41.6758 75.5625C36.7932 70.8819 34.0001 65.1434 33.2969 58.3476C32.8469 52.6978 33.2024 47.112 34.3633 41.5898C40.7471 36.3175 48.0596 32.9151 56.3008 31.3828C65.5986 30.0688 73.2667 32.9632 79.3047 40.0664C86.3125 50.423 85.9064 60.4777 78.086 70.2304C73.5943 74.4699 68.9734 78.5323 64.2227 82.4179Z" fill="#87CD65"/>
<path opacity="0.999" fill-rule="evenodd" clip-rule="evenodd" d="M34.3633 41.5898C33.2024 47.112 32.8469 52.6978 33.2969 58.3477C34.0001 65.1434 36.7932 70.8819 41.6758 75.5625C48.3247 80.571 55.8404 82.8561 64.2227 82.418C60.741 86.3353 58.5576 90.9056 57.6719 96.1289C56.922 103.437 58.0393 110.444 61.0234 117.152C65.2236 125.955 70.9108 133.674 78.0859 140.309C82.1949 144.66 84.3786 149.839 84.6367 155.848C80.4725 155.848 76.3087 155.848 72.1445 155.848C56.9004 154.357 43.3924 148.772 31.6211 139.09C26.5206 120.579 22.1026 101.891 18.3672 83.0273C17.9274 78.9735 17.8258 74.9111 18.0625 70.8398C19.6346 58.8525 25.0682 49.1025 34.3633 41.5898Z" fill="#6EAE46"/>
<path opacity="0.999" fill-rule="evenodd" clip-rule="evenodd" d="M12.1211 47.0742C12.3888 46.0989 12.8966 45.2863 13.6445 44.6367C17.8382 43.3863 20.2757 44.9606 20.957 49.3594C20.6031 53.3691 18.5718 54.5878 14.8633 53.0156C13.0646 51.4011 12.1505 49.4206 12.1211 47.0742Z" fill="#6EAD47"/>
<path fill-rule="evenodd" clip-rule="evenodd" d="M123.027 128.121C112.477 127.135 108.313 121.447 110.535 111.059C113.099 110.513 115.283 109.294 117.086 107.402C116.956 108.087 116.803 108.797 116.629 109.535C116.674 110.489 117.08 111.251 117.848 111.82C118.741 111.915 119.553 111.966 120.285 111.973C119.16 113.351 118.094 114.773 117.086 116.238C116.671 117.693 117.128 118.759 118.457 119.437C120.691 119.641 122.926 119.641 125.16 119.437C126.291 118.672 126.646 117.605 126.227 116.238C125.632 115.509 124.87 115.052 123.941 114.867C125.764 112.858 126.323 110.573 125.617 108.012C123.467 104.962 120.928 104.555 118 106.793C118.223 105.94 118.63 105.128 119.219 104.355C119.796 102.982 120.151 101.561 120.285 100.09C120.186 91.8782 116.022 87.5111 107.793 86.9883C107.124 86.9898 106.515 87.0912 105.965 87.2929C103.091 87.8651 100.755 89.2871 98.9571 91.5586C98.865 90.4922 98.3574 89.6287 97.4336 88.9687C95.9601 88.1287 94.4367 87.4687 92.8633 86.9883C89.0401 83.6556 87.5166 79.2885 88.293 73.8867C96.6999 65.3786 106.247 63.906 116.934 69.4687C121.325 72.4397 124.625 76.3498 126.836 81.1992C129.1 83.6778 131.893 85.2518 135.215 85.9218C143.367 90.2944 146.567 97.0481 144.813 106.184C143.693 110.043 141.51 113.14 138.262 115.477C135.267 117.016 132.22 118.438 129.121 119.742C128.258 120.605 127.394 121.469 126.531 122.332C125.508 124.383 124.341 126.312 123.027 128.121Z" fill="#E8EEFE"/>
<path fill-rule="evenodd" clip-rule="evenodd" d="M88.293 73.8867C87.5166 79.2885 89.0401 83.6556 92.8633 86.9883C88.746 86.4639 85.293 87.6827 82.5039 90.6445C78.7818 94.2353 77.8172 98.5009 79.6094 103.441C83.0624 110.451 88.4959 112.634 95.9102 109.992C97.2675 109.294 98.3848 108.329 99.2617 107.098C102.307 110.396 106.065 111.716 110.535 111.059C108.313 121.447 112.477 127.135 123.027 128.121C118.325 134.077 112.13 137.022 104.441 136.957C94.7575 136.058 87.902 131.183 83.875 122.332C83.0118 121.469 82.1483 120.605 81.2852 119.742C78.528 118.585 75.7858 117.366 73.0586 116.086C66.4505 111.401 63.9621 105.053 65.5937 97.043C66.8168 93.079 69.1019 89.8798 72.4492 87.4453C75.4476 85.9048 78.4945 84.4831 81.5898 83.1797C83.6529 81.2391 85.2272 78.954 86.3125 76.3242C86.9313 75.4543 87.5913 74.6417 88.293 73.8867Z" fill="#D2DBFA"/>
<path fill-rule="evenodd" clip-rule="evenodd" d="M105.965 87.293C106.515 87.0913 107.124 86.9898 107.793 86.9883C116.022 87.5111 120.186 91.8782 120.285 100.09C118.642 101.799 117.119 101.698 115.715 99.7852C115.523 94.3121 112.679 91.6713 107.184 91.8633C106.644 91.1195 106.238 90.3072 105.965 89.4258C105.982 88.6302 106.287 87.97 106.879 87.4453C106.59 87.2981 106.285 87.2476 105.965 87.293Z" fill="#B4D669"/>
<path fill-rule="evenodd" clip-rule="evenodd" d="M92.8633 86.9883C94.4367 87.4688 95.9601 88.1287 97.4336 88.9688C98.3574 89.6287 98.865 90.4922 98.957 91.5586C98.6487 91.9766 98.344 92.3828 98.0429 92.7774C97.4924 93.1171 96.883 93.32 96.2148 93.3867C95.1789 93.022 94.1631 92.565 93.1679 92.0156C91.6445 91.8124 90.1211 91.8124 88.5976 92.0156C87.3716 92.5257 86.2543 93.1859 85.2461 93.9961C83.1069 93.8876 82.1928 92.7707 82.5039 90.6446C85.293 87.6827 88.746 86.4639 92.8633 86.9883Z" fill="#B4D66A"/>
<path fill-rule="evenodd" clip-rule="evenodd" d="M105.965 87.293C106.285 87.2476 106.59 87.2981 106.879 87.4453C106.287 87.97 105.982 88.6302 105.965 89.4258C106.238 90.3072 106.644 91.1195 107.184 91.8633C102.284 93.1253 100.303 96.2739 101.242 101.309C103.733 106.472 107.542 107.742 112.668 105.117C114.356 103.722 115.371 101.944 115.715 99.7851C117.119 101.698 118.642 101.799 120.285 100.09C120.151 101.561 119.796 102.982 119.219 104.355C118.629 105.128 118.223 105.94 118 106.793C120.928 104.555 123.467 104.962 125.617 108.012C126.323 110.573 125.764 112.858 123.941 114.867C124.87 115.052 125.632 115.509 126.227 116.238C126.646 117.605 126.291 118.672 125.16 119.437C122.926 119.641 120.691 119.641 118.457 119.437C117.128 118.759 116.671 117.693 117.086 116.238C118.094 114.773 119.16 113.351 120.285 111.973C119.553 111.966 118.741 111.915 117.848 111.82C117.08 111.251 116.674 110.489 116.629 109.535C116.803 108.797 116.956 108.087 117.086 107.402C115.283 109.294 113.099 110.513 110.535 111.059C106.065 111.716 102.307 110.396 99.2617 107.098C98.3848 108.329 97.2675 109.294 95.9102 109.992C88.4959 112.634 83.0624 110.451 79.6094 103.441C77.8172 98.5009 78.7818 94.2353 82.5039 90.6445C82.1928 92.7706 83.1069 93.8876 85.2461 93.9961C82.4969 98.0307 82.9034 101.738 86.4648 105.117C88.5571 106.504 90.7917 106.809 93.168 106.031C94.4544 105.097 95.7749 104.234 97.1289 103.441C95.7301 99.7336 96.0348 96.1789 98.043 92.7773C98.344 92.3828 98.6487 91.9766 98.957 91.5586C100.755 89.2871 103.091 87.8652 105.965 87.293Z" fill="#89CE67"/>
<path fill-rule="evenodd" clip-rule="evenodd" d="M98.043 92.7774C96.0348 96.1789 95.7301 99.7337 97.1289 103.441C95.7749 104.234 94.4543 105.097 93.168 106.031C90.7917 106.809 88.5571 106.504 86.4648 105.117C82.9033 101.738 82.4969 98.0308 85.2461 93.9961C86.2543 93.1859 87.3716 92.5257 88.5976 92.0156C90.1211 91.8124 91.6445 91.8124 93.168 92.0156C94.1631 92.565 95.1789 93.022 96.2148 93.3867C96.883 93.32 97.4924 93.1171 98.043 92.7774Z" fill="#D2DBF9"/>
<path fill-rule="evenodd" clip-rule="evenodd" d="M107.184 91.8633C112.679 91.6713 115.523 94.312 115.715 99.7851C115.371 101.944 114.356 103.722 112.668 105.117C107.542 107.742 103.733 106.472 101.242 101.309C100.303 96.2739 102.284 93.1253 107.184 91.8633Z" fill="#E8EEFD"/>
</g>
<defs>
<filter id="filter0_d_18_2" x="-3" y="0" width="164" height="164" filterUnits="userSpaceOnUse" color-interpolation-filters="sRGB">
<feFlood flood-opacity="0" result="BackgroundImageFix"/>
<feColorMatrix in="SourceAlpha" type="matrix" values="0 0 0 0 0 0 0 0 0 0 0 0 0 0 0 0 0 0 127 0" result="hardAlpha"/>
<feOffset dy="4"/>
<feGaussianBlur stdDeviation="2"/>
<feComposite in2="hardAlpha" operator="out"/>
<feColorMatrix type="matrix" values="0 0 0 0 0 0 0 0 0 0 0 0 0 0 0 0 0 0 0.25 0"/>
<feBlend mode="normal" in2="BackgroundImageFix" result="effect1_dropShadow_18_2"/>
<feBlend mode="normal" in="SourceGraphic" in2="effect1_dropShadow_18_2" result="shape"/>
</filter>
<clipPath id="clip0_18_2">
<rect width="156" height="156" fill="white" transform="translate(1)"/>
</clipPath>
</defs>
</svg>
