<?xml version="1.0" encoding="UTF-8"?>
<!DOCTYPE svg PUBLIC "-//W3C//DTD SVG 1.1//EN" "http://www.w3.org/Graphics/SVG/1.1/DTD/svg11.dtd">
<svg xmlns="http://www.w3.org/2000/svg" version="1.1" width="512px" height="512px" style="shape-rendering:geometricPrecision; text-rendering:geometricPrecision; image-rendering:optimizeQuality; fill-rule:evenodd; clip-rule:evenodd" xmlns:xlink="http://www.w3.org/1999/xlink">
<g><path style="opacity:0.994" fill="#87cd65" d="M 238.5,-0.5 C 244.167,-0.5 249.833,-0.5 255.5,-0.5C 266.692,4.02425 275.026,11.6909 280.5,22.5C 282.44,26.9872 283.773,31.6539 284.5,36.5C 280.02,23.0878 270.687,16.9211 256.5,18C 244.63,23.2126 238.296,32.3793 237.5,45.5C 237.723,59.4837 244.057,69.317 256.5,75C 265.72,76.7045 273.22,73.8712 279,66.5C 280.872,63.4036 282.705,60.4036 284.5,57.5C 281.158,75.049 271.158,86.8823 254.5,93C 234.149,95.0102 219.982,86.5102 212,67.5C 207.502,53.2189 207.336,38.8856 211.5,24.5C 216.983,12.3501 225.983,4.0168 238.5,-0.5 Z"/></g>
<g><path style="opacity:1" fill="#b3d567" d="M 284.5,36.5 C 285.76,43.4566 285.76,50.4566 284.5,57.5C 282.705,60.4036 280.872,63.4036 279,66.5C 273.22,73.8712 265.72,76.7045 256.5,75C 244.057,69.317 237.723,59.4837 237.5,45.5C 238.296,32.3793 244.63,23.2126 256.5,18C 270.687,16.9211 280.02,23.0878 284.5,36.5 Z"/></g>
<g><path style="opacity:0.995" fill="#2a428c" d="M 280.5,22.5 C 304.987,24.4542 328.32,30.4542 350.5,40.5C 320.856,61.2791 304.523,89.7791 301.5,126C 300.387,147.513 309.72,162.18 329.5,170C 348.445,174.437 367.445,178.77 386.5,183C 399.626,188.126 410.459,196.293 419,207.5C 427.333,219.833 435.667,232.167 444,244.5C 459.186,261.512 478.019,267.512 500.5,262.5C 499.566,355.564 460.233,427.064 382.5,477C 349.863,496.046 314.863,507.546 277.5,511.5C 276.5,511.5 275.5,511.5 274.5,511.5C 273.653,491.78 266.486,474.78 253,460.5C 229.451,438.724 210.785,413.391 197,384.5C 187.206,362.484 183.539,339.484 186,315.5C 188.907,298.357 196.073,283.357 207.5,270.5C 223.092,257.747 238.258,244.414 253,230.5C 278.667,198.491 280,165.491 257,131.5C 237.183,108.187 212.016,98.6873 181.5,103C 154.452,108.029 130.452,119.196 109.5,136.5C 78.9931,161.157 61.1598,193.157 56,232.5C 55.2232,245.862 55.5565,259.195 57,272.5C 69.2599,334.413 83.7599,395.746 100.5,456.5C 48.2049,413.264 18.3716,357.597 11,289.5C 6.85756,242.049 15.3576,197.049 36.5,154.5C 36.5965,162.201 39.5965,168.701 45.5,174C 57.6717,179.16 64.3384,175.16 65.5,162C 63.2639,147.563 55.2639,142.396 41.5,146.5C 47.0432,135.966 53.3765,125.966 60.5,116.5C 61.3974,124.988 65.0641,132.155 71.5,138C 84.0027,144.723 92.8361,141.556 98,128.5C 99.9894,117.801 96.8227,108.967 88.5,102C 84.7686,99.9006 80.7686,98.7339 76.5,98.5C 82.2023,91.7967 88.5356,85.7967 95.5,80.5C 95.7789,96.4325 103.612,106.099 119,109.5C 128.333,108.5 134.333,103.5 137,94.5C 139.508,79.8656 134.674,68.5323 122.5,60.5C 130.136,55.3436 138.136,50.677 146.5,46.5C 143.521,59.2229 145.688,70.8895 153,81.5C 165.59,92.6601 177.59,91.9935 189,79.5C 197.634,61.3108 194.468,45.6441 179.5,32.5C 190.107,29.5148 200.774,26.8482 211.5,24.5C 207.336,38.8856 207.502,53.2189 212,67.5C 219.982,86.5102 234.149,95.0102 254.5,93C 271.158,86.8823 281.158,75.049 284.5,57.5C 285.76,50.4566 285.76,43.4566 284.5,36.5C 283.773,31.6539 282.44,26.9872 280.5,22.5 Z"/></g>
<g><path style="opacity:0.996" fill="#87cd65" d="M 179.5,32.5 C 194.468,45.6441 197.634,61.3108 189,79.5C 177.59,91.9935 165.59,92.6601 153,81.5C 145.688,70.8895 143.521,59.2229 146.5,46.5C 153.115,31.6961 164.115,27.0294 179.5,32.5 Z"/></g>
<g><path style="opacity:1" fill="#3b579f" d="M 350.5,40.5 C 409.891,65.7233 453.058,107.723 480,166.5C 493.478,197.08 500.312,229.08 500.5,262.5C 478.019,267.512 459.186,261.512 444,244.5C 435.667,232.167 427.333,219.833 419,207.5C 410.459,196.293 399.626,188.126 386.5,183C 367.445,178.77 348.445,174.437 329.5,170C 309.72,162.18 300.387,147.513 301.5,126C 304.523,89.7791 320.856,61.2791 350.5,40.5 Z"/></g>
<g><path style="opacity:0.995" fill="#87cc65" d="M 122.5,60.5 C 134.674,68.5323 139.508,79.8656 137,94.5C 134.333,103.5 128.333,108.5 119,109.5C 103.612,106.099 95.7789,96.4325 95.5,80.5C 96.6769,63.4025 105.677,56.7359 122.5,60.5 Z"/></g>
<g><path style="opacity:0.995" fill="#6ead46" d="M 76.5,98.5 C 80.7686,98.7339 84.7686,99.9006 88.5,102C 96.8227,108.967 99.9894,117.801 98,128.5C 92.8361,141.556 84.0027,144.723 71.5,138C 65.0641,132.155 61.3974,124.988 60.5,116.5C 61.3293,106.344 66.6626,100.344 76.5,98.5 Z"/></g>
<g><path style="opacity:1" fill="#87cd65" d="M 207.5,270.5 C 179.989,271.938 155.322,264.438 133.5,248C 117.475,232.638 108.308,213.804 106,191.5C 104.523,172.957 105.69,154.624 109.5,136.5C 130.452,119.196 154.452,108.029 181.5,103C 212.016,98.6873 237.183,108.187 257,131.5C 280,165.491 278.667,198.491 253,230.5C 238.258,244.414 223.092,257.747 207.5,270.5 Z"/></g>
<g><path style="opacity:0.999" fill="#6eae46" d="M 109.5,136.5 C 105.69,154.624 104.523,172.957 106,191.5C 108.308,213.804 117.475,232.638 133.5,248C 155.322,264.438 179.989,271.938 207.5,270.5C 196.073,283.357 188.907,298.357 186,315.5C 183.539,339.484 187.206,362.484 197,384.5C 210.785,413.391 229.451,438.724 253,460.5C 266.486,474.78 273.653,491.78 274.5,511.5C 260.833,511.5 247.167,511.5 233.5,511.5C 183.468,506.609 139.134,488.276 100.5,456.5C 83.7599,395.746 69.2599,334.413 57,272.5C 55.5565,259.195 55.2232,245.862 56,232.5C 61.1598,193.157 78.9931,161.157 109.5,136.5 Z"/></g>
<g><path style="opacity:0.999" fill="#6ead47" d="M 36.5,154.5 C 37.3786,151.299 39.0453,148.632 41.5,146.5C 55.2639,142.396 63.2639,147.563 65.5,162C 64.3384,175.16 57.6717,179.16 45.5,174C 39.5965,168.701 36.5965,162.201 36.5,154.5 Z"/></g>
<g><path style="opacity:1" fill="#e8eefe" d="M 400.5,420.5 C 365.874,417.263 352.207,398.596 359.5,364.5C 367.916,362.709 375.083,358.709 381,352.5C 380.572,354.746 380.072,357.079 379.5,359.5C 379.648,362.63 380.982,365.13 383.5,367C 386.432,367.311 389.098,367.478 391.5,367.5C 387.808,372.025 384.308,376.692 381,381.5C 379.639,386.274 381.139,389.774 385.5,392C 392.833,392.667 400.167,392.667 407.5,392C 411.212,389.487 412.378,385.987 411,381.5C 409.048,379.106 406.548,377.606 403.5,377C 409.483,370.407 411.317,362.907 409,354.5C 401.942,344.49 393.609,343.156 384,350.5C 384.732,347.701 386.066,345.034 388,342.5C 389.893,337.993 391.059,333.327 391.5,328.5C 391.174,301.549 377.508,287.216 350.5,285.5C 348.304,285.505 346.304,285.838 344.5,286.5C 335.067,288.378 327.401,293.045 321.5,300.5C 321.198,297 319.532,294.166 316.5,292C 311.664,289.243 306.664,287.077 301.5,285.5C 288.952,274.562 283.952,260.229 286.5,242.5C 314.092,214.576 345.425,209.743 380.5,228C 394.912,237.751 405.745,250.584 413,266.5C 420.43,274.635 429.597,279.801 440.5,282C 467.257,296.351 477.757,318.517 472,348.5C 468.327,361.166 461.16,371.333 450.5,379C 440.67,384.053 430.67,388.72 420.5,393C 417.667,395.833 414.833,398.667 412,401.5C 408.643,408.23 404.81,414.563 400.5,420.5 Z"/></g>
<g><path style="opacity:1" fill="#d2dbfa" d="M 286.5,242.5 C 283.952,260.229 288.952,274.562 301.5,285.5C 287.987,283.779 276.654,287.779 267.5,297.5C 255.284,309.285 252.118,323.285 258,339.5C 269.333,362.506 287.166,369.672 311.5,361C 315.955,358.709 319.622,355.542 322.5,351.5C 332.494,362.324 344.828,366.657 359.5,364.5C 352.207,398.596 365.874,417.263 400.5,420.5C 385.068,440.046 364.735,449.712 339.5,449.5C 307.717,446.55 285.217,430.55 272,401.5C 269.167,398.667 266.333,395.833 263.5,393C 254.451,389.202 245.451,385.202 236.5,381C 214.812,365.623 206.645,344.79 212,318.5C 216.014,305.49 223.514,294.99 234.5,287C 244.341,281.944 254.341,277.278 264.5,273C 271.271,266.631 276.438,259.131 280,250.5C 282.031,247.645 284.197,244.978 286.5,242.5 Z"/></g>
<g><path style="opacity:1" fill="#b4d669" d="M 344.5,286.5 C 346.304,285.838 348.304,285.505 350.5,285.5C 377.508,287.216 391.174,301.549 391.5,328.5C 386.107,334.111 381.107,333.777 376.5,327.5C 375.869,309.537 366.535,300.87 348.5,301.5C 346.729,299.059 345.395,296.393 344.5,293.5C 344.556,290.889 345.556,288.722 347.5,287C 346.552,286.517 345.552,286.351 344.5,286.5 Z"/></g>
<g><path style="opacity:1" fill="#b4d66a" d="M 301.5,285.5 C 306.664,287.077 311.664,289.243 316.5,292C 319.532,294.166 321.198,297 321.5,300.5C 320.488,301.872 319.488,303.205 318.5,304.5C 316.693,305.615 314.693,306.281 312.5,306.5C 309.1,305.303 305.766,303.803 302.5,302C 297.5,301.333 292.5,301.333 287.5,302C 283.476,303.674 279.809,305.841 276.5,308.5C 269.479,308.144 266.479,304.478 267.5,297.5C 276.654,287.779 287.987,283.779 301.5,285.5 Z"/></g>
<g><path style="opacity:1" fill="#89ce67" d="M 344.5,286.5 C 345.552,286.351 346.552,286.517 347.5,287C 345.556,288.722 344.556,290.889 344.5,293.5C 345.395,296.393 346.729,299.059 348.5,301.5C 332.418,305.642 325.918,315.976 329,332.5C 337.175,349.447 349.675,353.614 366.5,345C 372.04,340.42 375.373,334.587 376.5,327.5C 381.107,333.777 386.107,334.111 391.5,328.5C 391.059,333.327 389.893,337.993 388,342.5C 386.066,345.034 384.732,347.701 384,350.5C 393.609,343.156 401.942,344.49 409,354.5C 411.317,362.907 409.483,370.407 403.5,377C 406.548,377.606 409.048,379.106 411,381.5C 412.378,385.987 411.212,389.487 407.5,392C 400.167,392.667 392.833,392.667 385.5,392C 381.139,389.774 379.639,386.274 381,381.5C 384.308,376.692 387.808,372.025 391.5,367.5C 389.098,367.478 386.432,367.311 383.5,367C 380.982,365.13 379.648,362.63 379.5,359.5C 380.072,357.079 380.572,354.746 381,352.5C 375.083,358.709 367.916,362.709 359.5,364.5C 344.828,366.657 332.494,362.324 322.5,351.5C 319.622,355.542 315.955,358.709 311.5,361C 287.166,369.672 269.333,362.506 258,339.5C 252.118,323.285 255.284,309.285 267.5,297.5C 266.479,304.478 269.479,308.144 276.5,308.5C 267.477,321.742 268.811,333.908 280.5,345C 287.367,349.553 294.701,350.553 302.5,348C 306.722,344.934 311.056,342.101 315.5,339.5C 310.909,327.331 311.909,315.664 318.5,304.5C 319.488,303.205 320.488,301.872 321.5,300.5C 327.401,293.045 335.067,288.378 344.5,286.5 Z"/></g>
<g><path style="opacity:1" fill="#d2dbf9" d="M 318.5,304.5 C 311.909,315.664 310.909,327.331 315.5,339.5C 311.056,342.101 306.722,344.934 302.5,348C 294.701,350.553 287.367,349.553 280.5,345C 268.811,333.908 267.477,321.742 276.5,308.5C 279.809,305.841 283.476,303.674 287.5,302C 292.5,301.333 297.5,301.333 302.5,302C 305.766,303.803 309.1,305.303 312.5,306.5C 314.693,306.281 316.693,305.615 318.5,304.5 Z"/></g>
<g><path style="opacity:1" fill="#e8eefd" d="M 348.5,301.5 C 366.535,300.87 375.869,309.537 376.5,327.5C 375.373,334.587 372.04,340.42 366.5,345C 349.675,353.614 337.175,349.447 329,332.5C 325.918,315.976 332.418,305.642 348.5,301.5 Z"/></g>
</svg>
