<?xml version="1.0" encoding="UTF-8"?>
<svg xmlns="http://www.w3.org/2000/svg" xmlns:xlink="http://www.w3.org/1999/xlink" width="32px" height="32" viewBox="0 0 128 128" version="1.1">
<defs>
<filter id="alpha" filterUnits="objectBoundingBox" x="0%" y="0%" width="100%" height="100%">
  <feColorMatrix type="matrix" in="SourceGraphic" values="0 0 0 0 1 0 0 0 0 1 0 0 0 0 1 0 0 0 1 0"/>
</filter>
<mask id="mask0">
  <g filter="url(#alpha)">
<rect x="0" y="0" width="128" height="128" style="fill:rgb(0%,0%,0%);fill-opacity:0.992157;stroke:none;"/>
  </g>
</mask>
<clipPath id="clip1">
  <rect x="0" y="0" width="128" height="128"/>
</clipPath>
<g id="surface5" clip-path="url(#clip1)">
<path style=" stroke:none;fill-rule:evenodd;fill:rgb(52.941176%,80.392157%,39.607843%);fill-opacity:1;" d="M 59.625 -0.125 C 61.042969 -0.125 62.457031 -0.125 63.875 -0.125 C 66.671875 1.007812 68.757812 2.921875 70.125 5.625 C 70.609375 6.746094 70.941406 7.914062 71.125 9.125 C 70.003906 5.773438 67.671875 4.230469 64.125 4.5 C 61.15625 5.804688 59.574219 8.09375 59.375 11.375 C 59.429688 14.871094 61.015625 17.328125 64.125 18.75 C 66.429688 19.175781 68.304688 18.46875 69.75 16.625 C 70.21875 15.851562 70.675781 15.101562 71.125 14.375 C 70.289062 18.761719 67.789062 21.71875 63.625 23.25 C 58.539062 23.753906 54.996094 21.628906 53 16.875 C 51.875 13.304688 51.835938 9.722656 52.875 6.125 C 54.246094 3.085938 56.496094 1.003906 59.625 -0.125 Z M 59.625 -0.125 "/>
</g>
<mask id="mask1">
  <g filter="url(#alpha)">
<rect x="0" y="0" width="128" height="128" style="fill:rgb(0%,0%,0%);fill-opacity:0.996078;stroke:none;"/>
  </g>
</mask>
<clipPath id="clip2">
  <rect x="0" y="0" width="128" height="128"/>
</clipPath>
<g id="surface8" clip-path="url(#clip2)">
<path style=" stroke:none;fill-rule:evenodd;fill:rgb(16.470588%,25.882353%,54.901961%);fill-opacity:1;" d="M 70.125 5.625 C 76.246094 6.113281 82.078125 7.613281 87.625 10.125 C 80.214844 15.320312 76.128906 22.445312 75.375 31.5 C 75.097656 36.878906 77.429688 40.546875 82.375 42.5 C 87.109375 43.609375 91.859375 44.691406 96.625 45.75 C 99.90625 47.03125 102.613281 49.074219 104.75 51.875 C 106.832031 54.957031 108.917969 58.042969 111 61.125 C 114.796875 65.378906 119.503906 66.878906 125.125 65.625 C 124.890625 88.890625 115.058594 106.765625 95.625 119.25 C 87.464844 124.011719 78.714844 126.886719 69.375 127.875 C 69.125 127.875 68.875 127.875 68.625 127.875 C 68.414062 122.945312 66.621094 118.695312 63.25 115.125 C 57.363281 109.679688 52.695312 103.347656 49.25 96.125 C 46.800781 90.621094 45.882812 84.871094 46.5 78.875 C 47.226562 74.589844 49.019531 70.839844 51.875 67.625 C 55.773438 64.4375 59.566406 61.101562 63.25 57.625 C 69.667969 49.621094 70 41.371094 64.25 32.875 C 59.296875 27.046875 53.003906 24.671875 45.375 25.75 C 38.613281 27.007812 32.613281 29.800781 27.375 34.125 C 19.75 40.289062 15.289062 48.289062 14 58.125 C 13.804688 61.464844 13.890625 64.796875 14.25 68.125 C 17.316406 83.601562 20.941406 98.9375 25.125 114.125 C 12.050781 103.316406 4.59375 89.398438 2.75 72.375 C 1.714844 60.511719 3.839844 49.261719 9.125 38.625 C 9.148438 40.550781 9.898438 42.175781 11.375 43.5 C 14.417969 44.789062 16.085938 43.789062 16.375 40.5 C 15.816406 36.890625 13.816406 35.597656 10.375 36.625 C 11.761719 33.992188 13.34375 31.492188 15.125 29.125 C 15.347656 31.246094 16.265625 33.039062 17.875 34.5 C 21 36.179688 23.210938 35.390625 24.5 32.125 C 24.996094 29.449219 24.207031 27.242188 22.125 25.5 C 21.191406 24.976562 20.191406 24.683594 19.125 24.625 C 20.550781 22.949219 22.132812 21.449219 23.875 20.125 C 23.945312 24.109375 25.902344 26.523438 29.75 27.375 C 32.082031 27.125 33.582031 25.875 34.25 23.625 C 34.878906 19.964844 33.667969 17.132812 30.625 15.125 C 32.535156 13.835938 34.535156 12.667969 36.625 11.625 C 35.878906 14.804688 36.421875 17.722656 38.25 20.375 C 41.398438 23.164062 44.398438 23 47.25 19.875 C 49.410156 15.328125 48.617188 11.410156 44.875 8.125 C 47.527344 7.378906 50.195312 6.710938 52.875 6.125 C 51.835938 9.722656 51.875 13.304688 53 16.875 C 54.996094 21.628906 58.539062 23.753906 63.625 23.25 C 67.789062 21.71875 70.289062 18.761719 71.125 14.375 C 71.441406 12.613281 71.441406 10.863281 71.125 9.125 C 70.941406 7.914062 70.609375 6.746094 70.125 5.625 Z M 70.125 5.625 "/>
</g>
<mask id="mask2">
  <g filter="url(#alpha)">
<rect x="0" y="0" width="128" height="128" style="fill:rgb(0%,0%,0%);fill-opacity:0.996078;stroke:none;"/>
  </g>
</mask>
<clipPath id="clip3">
  <rect x="0" y="0" width="128" height="128"/>
</clipPath>
<g id="surface11" clip-path="url(#clip3)">
<path style=" stroke:none;fill-rule:evenodd;fill:rgb(52.941176%,80.392157%,39.607843%);fill-opacity:1;" d="M 44.875 8.125 C 48.617188 11.410156 49.410156 15.328125 47.25 19.875 C 44.398438 23 41.398438 23.164062 38.25 20.375 C 36.421875 17.722656 35.878906 14.804688 36.625 11.625 C 38.277344 7.925781 41.027344 6.757812 44.875 8.125 Z M 44.875 8.125 "/>
</g>
<mask id="mask3">
  <g filter="url(#alpha)">
<rect x="0" y="0" width="128" height="128" style="fill:rgb(0%,0%,0%);fill-opacity:0.996078;stroke:none;"/>
  </g>
</mask>
<clipPath id="clip4">
  <rect x="0" y="0" width="128" height="128"/>
</clipPath>
<g id="surface14" clip-path="url(#clip4)">
<path style=" stroke:none;fill-rule:evenodd;fill:rgb(52.941176%,80%,39.607843%);fill-opacity:1;" d="M 30.625 15.125 C 33.667969 17.132812 34.878906 19.964844 34.25 23.625 C 33.582031 25.875 32.082031 27.125 29.75 27.375 C 25.902344 26.523438 23.945312 24.109375 23.875 20.125 C 24.167969 15.851562 26.417969 14.183594 30.625 15.125 Z M 30.625 15.125 "/>
</g>
<mask id="mask4">
  <g filter="url(#alpha)">
<rect x="0" y="0" width="128" height="128" style="fill:rgb(0%,0%,0%);fill-opacity:0.996078;stroke:none;"/>
  </g>
</mask>
<clipPath id="clip5">
  <rect x="0" y="0" width="128" height="128"/>
</clipPath>
<g id="surface17" clip-path="url(#clip5)">
<path style=" stroke:none;fill-rule:evenodd;fill:rgb(43.137255%,67.843137%,27.45098%);fill-opacity:1;" d="M 19.125 24.625 C 20.191406 24.683594 21.191406 24.976562 22.125 25.5 C 24.207031 27.242188 24.996094 29.449219 24.5 32.125 C 23.210938 35.390625 21 36.179688 17.875 34.5 C 16.265625 33.039062 15.347656 31.246094 15.125 29.125 C 15.332031 26.585938 16.664062 25.085938 19.125 24.625 Z M 19.125 24.625 "/>
</g>
</defs>
<g id="surface1">
<use xlink:href="#surface5" mask="url(#mask0)"/>
<path style=" stroke:none;fill-rule:evenodd;fill:rgb(70.196078%,83.529412%,40.392157%);fill-opacity:1;" d="M 71.125 9.125 C 71.441406 10.863281 71.441406 12.613281 71.125 14.375 C 70.675781 15.101562 70.21875 15.851562 69.75 16.625 C 68.304688 18.46875 66.429688 19.175781 64.125 18.75 C 61.015625 17.328125 59.429688 14.871094 59.375 11.375 C 59.574219 8.09375 61.15625 5.804688 64.125 4.5 C 67.671875 4.230469 70.003906 5.773438 71.125 9.125 Z M 71.125 9.125 "/>
<use xlink:href="#surface8" mask="url(#mask1)"/>
<use xlink:href="#surface11" mask="url(#mask2)"/>
<path style=" stroke:none;fill-rule:evenodd;fill:rgb(23.137255%,34.117647%,62.352941%);fill-opacity:1;" d="M 87.625 10.125 C 102.472656 16.429688 113.265625 26.929688 120 41.625 C 123.371094 49.269531 125.078125 57.269531 125.125 65.625 C 119.503906 66.878906 114.796875 65.378906 111 61.125 C 108.917969 58.042969 106.832031 54.957031 104.75 51.875 C 102.613281 49.074219 99.90625 47.03125 96.625 45.75 C 91.859375 44.691406 87.109375 43.609375 82.375 42.5 C 77.429688 40.546875 75.097656 36.878906 75.375 31.5 C 76.128906 22.445312 80.214844 15.320312 87.625 10.125 Z M 87.625 10.125 "/>
<use xlink:href="#surface14" mask="url(#mask3)"/>
<use xlink:href="#surface17" mask="url(#mask4)"/>
<path style=" stroke:none;fill-rule:evenodd;fill:rgb(52.941176%,80.392157%,39.607843%);fill-opacity:1;" d="M 51.875 67.625 C 44.996094 67.984375 38.832031 66.109375 33.375 62 C 29.367188 58.160156 27.078125 53.449219 26.5 47.875 C 26.128906 43.238281 26.421875 38.65625 27.375 34.125 C 32.613281 29.800781 38.613281 27.007812 45.375 25.75 C 53.003906 24.671875 59.296875 27.046875 64.25 32.875 C 70 41.371094 69.667969 49.621094 63.25 57.625 C 59.566406 61.101562 55.773438 64.4375 51.875 67.625 Z M 51.875 67.625 "/>
<path style=" stroke:none;fill-rule:evenodd;fill:rgb(43.137255%,68.235294%,27.45098%);fill-opacity:1;" d="M 27.375 34.125 C 26.421875 38.65625 26.128906 43.238281 26.5 47.875 C 27.078125 53.449219 29.367188 58.160156 33.375 62 C 38.832031 66.109375 44.996094 67.984375 51.875 67.625 C 49.019531 70.839844 47.226562 74.589844 46.5 78.875 C 45.882812 84.871094 46.800781 90.621094 49.25 96.125 C 52.695312 103.347656 57.363281 109.679688 63.25 115.125 C 66.621094 118.695312 68.414062 122.945312 68.625 127.875 C 65.207031 127.875 61.792969 127.875 58.375 127.875 C 45.867188 126.652344 34.785156 122.070312 25.125 114.125 C 20.941406 98.9375 17.316406 83.601562 14.25 68.125 C 13.890625 64.796875 13.804688 61.464844 14 58.125 C 15.289062 48.289062 19.75 40.289062 27.375 34.125 Z M 27.375 34.125 "/>
<path style=" stroke:none;fill-rule:evenodd;fill:rgb(43.137255%,67.843137%,27.843137%);fill-opacity:1;" d="M 9.125 38.625 C 9.34375 37.824219 9.761719 37.15625 10.375 36.625 C 13.816406 35.597656 15.816406 36.890625 16.375 40.5 C 16.085938 43.789062 14.417969 44.789062 11.375 43.5 C 9.898438 42.175781 9.148438 40.550781 9.125 38.625 Z M 9.125 38.625 "/>
<path style=" stroke:none;fill-rule:evenodd;fill:rgb(90.980392%,93.333333%,99.607843%);fill-opacity:1;" d="M 100.125 105.125 C 91.46875 104.316406 88.050781 99.648438 89.875 91.125 C 91.980469 90.675781 93.769531 89.675781 95.25 88.125 C 95.144531 88.6875 95.019531 89.269531 94.875 89.875 C 94.910156 90.65625 95.246094 91.28125 95.875 91.75 C 96.609375 91.828125 97.273438 91.871094 97.875 91.875 C 96.953125 93.007812 96.078125 94.171875 95.25 95.375 C 94.910156 96.570312 95.285156 97.445312 96.375 98 C 98.207031 98.167969 100.042969 98.167969 101.875 98 C 102.804688 97.371094 103.09375 96.496094 102.75 95.375 C 102.261719 94.777344 101.636719 94.402344 100.875 94.25 C 102.371094 92.601562 102.828125 90.726562 102.25 88.625 C 100.484375 86.121094 98.402344 85.789062 96 87.625 C 96.183594 86.925781 96.515625 86.257812 97 85.625 C 97.472656 84.5 97.765625 83.332031 97.875 82.125 C 97.792969 75.386719 94.378906 71.804688 87.625 71.375 C 87.074219 71.375 86.574219 71.460938 86.125 71.625 C 83.765625 72.09375 81.851562 73.261719 80.375 75.125 C 80.300781 74.25 79.882812 73.542969 79.125 73 C 77.914062 72.3125 76.664062 71.769531 75.375 71.375 C 72.238281 68.640625 70.988281 65.058594 71.625 60.625 C 78.523438 53.644531 86.355469 52.4375 95.125 57 C 98.726562 59.4375 101.4375 62.644531 103.25 66.625 C 105.109375 68.660156 107.398438 69.949219 110.125 70.5 C 116.8125 74.085938 119.4375 79.628906 118 87.125 C 117.082031 90.292969 115.289062 92.832031 112.625 94.75 C 110.167969 96.011719 107.667969 97.179688 105.125 98.25 C 104.417969 98.957031 103.707031 99.667969 103 100.375 C 102.160156 102.058594 101.203125 103.640625 100.125 105.125 Z M 100.125 105.125 "/>
<path style=" stroke:none;fill-rule:evenodd;fill:rgb(82.352941%,85.882353%,98.039216%);fill-opacity:1;" d="M 71.625 60.625 C 70.988281 65.058594 72.238281 68.640625 75.375 71.375 C 71.996094 70.945312 69.164062 71.945312 66.875 74.375 C 63.820312 77.320312 63.03125 80.820312 64.5 84.875 C 67.332031 90.625 71.792969 92.417969 77.875 90.25 C 78.988281 89.675781 79.90625 88.886719 80.625 87.875 C 83.125 90.582031 86.207031 91.664062 89.875 91.125 C 88.050781 99.648438 91.46875 104.316406 100.125 105.125 C 96.265625 110.011719 91.183594 112.429688 84.875 112.375 C 76.929688 111.636719 71.304688 107.636719 68 100.375 C 67.292969 99.667969 66.582031 98.957031 65.875 98.25 C 63.613281 97.300781 61.363281 96.300781 59.125 95.25 C 53.703125 91.40625 51.660156 86.199219 53 79.625 C 54.003906 76.371094 55.878906 73.746094 58.625 71.75 C 61.085938 70.484375 63.585938 69.320312 66.125 68.25 C 67.816406 66.65625 69.109375 64.78125 70 62.625 C 70.507812 61.910156 71.050781 61.246094 71.625 60.625 Z M 71.625 60.625 "/>
<path style=" stroke:none;fill-rule:evenodd;fill:rgb(70.588235%,83.921569%,41.176471%);fill-opacity:1;" d="M 86.125 71.625 C 86.574219 71.460938 87.074219 71.375 87.625 71.375 C 94.378906 71.804688 97.792969 75.386719 97.875 82.125 C 96.527344 83.527344 95.277344 83.445312 94.125 81.875 C 93.96875 77.382812 91.632812 75.21875 87.125 75.375 C 86.683594 74.765625 86.347656 74.097656 86.125 73.375 C 86.140625 72.722656 86.390625 72.179688 86.875 71.75 C 86.636719 71.628906 86.386719 71.585938 86.125 71.625 Z M 86.125 71.625 "/>
<path style=" stroke:none;fill-rule:evenodd;fill:rgb(70.588235%,83.921569%,41.568627%);fill-opacity:1;" d="M 75.375 71.375 C 76.664062 71.769531 77.914062 72.3125 79.125 73 C 79.882812 73.542969 80.300781 74.25 80.375 75.125 C 80.121094 75.46875 79.871094 75.800781 79.625 76.125 C 79.171875 76.402344 78.671875 76.570312 78.125 76.625 C 77.273438 76.324219 76.441406 75.949219 75.625 75.5 C 74.375 75.332031 73.125 75.332031 71.875 75.5 C 70.867188 75.917969 69.953125 76.460938 69.125 77.125 C 67.371094 77.035156 66.621094 76.121094 66.875 74.375 C 69.164062 71.945312 71.996094 70.945312 75.375 71.375 Z M 75.375 71.375 "/>
<path style=" stroke:none;fill-rule:evenodd;fill:rgb(53.72549%,80.784314%,40.392157%);fill-opacity:1;" d="M 86.125 71.625 C 86.386719 71.585938 86.636719 71.628906 86.875 71.75 C 86.390625 72.179688 86.140625 72.722656 86.125 73.375 C 86.347656 74.097656 86.683594 74.765625 87.125 75.375 C 83.105469 76.410156 81.480469 78.992188 82.25 83.125 C 84.292969 87.363281 87.417969 88.402344 91.625 86.25 C 93.011719 85.105469 93.84375 83.648438 94.125 81.875 C 95.277344 83.445312 96.527344 83.527344 97.875 82.125 C 97.765625 83.332031 97.472656 84.5 97 85.625 C 96.515625 86.257812 96.183594 86.925781 96 87.625 C 98.402344 85.789062 100.484375 86.121094 102.25 88.625 C 102.828125 90.726562 102.371094 92.601562 100.875 94.25 C 101.636719 94.402344 102.261719 94.777344 102.75 95.375 C 103.09375 96.496094 102.804688 97.371094 101.875 98 C 100.042969 98.167969 98.207031 98.167969 96.375 98 C 95.285156 97.445312 94.910156 96.570312 95.25 95.375 C 96.078125 94.171875 96.953125 93.007812 97.875 91.875 C 97.273438 91.871094 96.609375 91.828125 95.875 91.75 C 95.246094 91.28125 94.910156 90.65625 94.875 89.875 C 95.019531 89.269531 95.144531 88.6875 95.25 88.125 C 93.769531 89.675781 91.980469 90.675781 89.875 91.125 C 86.207031 91.664062 83.125 90.582031 80.625 87.875 C 79.90625 88.886719 78.988281 89.675781 77.875 90.25 C 71.792969 92.417969 67.332031 90.625 64.5 84.875 C 63.03125 80.820312 63.820312 77.320312 66.875 74.375 C 66.621094 76.121094 67.371094 77.035156 69.125 77.125 C 66.871094 80.433594 67.203125 83.476562 70.125 86.25 C 71.839844 87.386719 73.675781 87.636719 75.625 87 C 76.679688 86.234375 77.765625 85.523438 78.875 84.875 C 77.726562 81.832031 77.976562 78.914062 79.625 76.125 C 79.871094 75.800781 80.121094 75.46875 80.375 75.125 C 81.851562 73.261719 83.765625 72.09375 86.125 71.625 Z M 86.125 71.625 "/>
<path style=" stroke:none;fill-rule:evenodd;fill:rgb(82.352941%,85.882353%,97.647059%);fill-opacity:1;" d="M 79.625 76.125 C 77.976562 78.914062 77.726562 81.832031 78.875 84.875 C 77.765625 85.523438 76.679688 86.234375 75.625 87 C 73.675781 87.636719 71.839844 87.386719 70.125 86.25 C 67.203125 83.476562 66.871094 80.433594 69.125 77.125 C 69.953125 76.460938 70.867188 75.917969 71.875 75.5 C 73.125 75.332031 74.375 75.332031 75.625 75.5 C 76.441406 75.949219 77.273438 76.324219 78.125 76.625 C 78.671875 76.570312 79.171875 76.402344 79.625 76.125 Z M 79.625 76.125 "/>
<path style=" stroke:none;fill-rule:evenodd;fill:rgb(90.980392%,93.333333%,99.215686%);fill-opacity:1;" d="M 87.125 75.375 C 91.632812 75.21875 93.96875 77.382812 94.125 81.875 C 93.84375 83.648438 93.011719 85.105469 91.625 86.25 C 87.417969 88.402344 84.292969 87.363281 82.25 83.125 C 81.480469 78.992188 83.105469 76.410156 87.125 75.375 Z M 87.125 75.375 "/>
</g>
</svg>
