<svg width="24" height="24" viewBox="0 0 24 24" fill="none" xmlns="http://www.w3.org/2000/svg">
<g clip-path="url(#clip0_11_2)">
<path d="M23.7141 12.2245C23.7141 11.2413 23.6343 10.5238 23.4616 9.77966H12.2336V14.2176H18.8242C18.6914 15.3205 17.9739 16.9815 16.3793 18.0976L16.357 18.2462L19.907 20.9964L20.153 21.0209C22.4118 18.9347 23.7141 15.8653 23.7141 12.2245Z" fill="#4285F4"/>
<path d="M12.2335 23.9176C15.4623 23.9176 18.173 22.8545 20.1529 21.0209L16.3792 18.0976C15.3693 18.8018 14.014 19.2934 12.2335 19.2934C9.07109 19.2934 6.38703 17.2074 5.43023 14.324L5.28999 14.3359L1.59857 17.1927L1.55029 17.3269C3.51683 21.2334 7.55625 23.9176 12.2335 23.9176Z" fill="#34A853"/>
<path d="M5.43041 14.324C5.17796 13.5799 5.03185 12.7826 5.03185 11.9588C5.03185 11.1349 5.17796 10.3377 5.41713 9.5936L5.41044 9.43513L1.67276 6.53241L1.55047 6.59058C0.739971 8.21168 0.274902 10.0321 0.274902 11.9588C0.274902 13.8855 0.739971 15.7058 1.55047 17.3269L5.43041 14.324Z" fill="#FBBC05"/>
<path d="M12.2335 4.62403C14.4791 4.62403 15.9938 5.59401 16.8575 6.40461L20.2326 3.10928C18.1598 1.1826 15.4623 0 12.2335 0C7.55625 0 3.51683 2.68406 1.55029 6.59056L5.41695 9.59359C6.38703 6.7102 9.07109 4.62403 12.2335 4.62403Z" fill="#EB4335"/>
</g>
<defs>
<clipPath id="clip0_11_2">
<rect width="24" height="24" fill="white"/>
</clipPath>
</defs>
</svg>
